<?xml version="1.0" encoding="UTF-8"?>
<svg version="1.1" xmlns="http://www.w3.org/2000/svg" width="690" height="152">
<path d="M0 0 C6.83151053 2.70082974 12.72810197 3.09480701 19.5 0.1875 C22.24242682 -0.82236398 23.51867089 -1.13649632 26.35546875 -0.33203125 C31.54116847 2.35202439 35.88355401 6.02481657 39 11 C39.93393395 14.00861895 40.12859286 16.7373878 40.1328125 19.87890625 C40.13474609 21.26045898 40.13474609 21.26045898 40.13671875 22.66992188 C40.13285156 23.62447266 40.12898438 24.57902344 40.125 25.5625 C40.13080078 27.00012695 40.13080078 27.00012695 40.13671875 28.46679688 C40.13542969 29.38654297 40.13414062 30.30628906 40.1328125 31.25390625 C40.13168457 32.09252197 40.13055664 32.9311377 40.12939453 33.79516602 C40 36 40 36 39 39 C36.46416241 40.2679188 34.686227 40.1338601 31.84765625 40.14526367 C30.77314209 40.15164352 29.69862793 40.15802338 28.59155273 40.16459656 C27.42696533 40.16570938 26.26237793 40.1668222 25.0625 40.16796875 C23.87148682 40.17129715 22.68047363 40.17462555 21.45336914 40.17805481 C18.9314818 40.1831246 16.40958774 40.18546312 13.88769531 40.18530273 C10.01616455 40.18749086 6.14491786 40.20565084 2.2734375 40.22460938 C-0.17187402 40.22754287 -2.6171869 40.22952796 -5.0625 40.23046875 C-6.2270874 40.23765427 -7.3916748 40.24483978 -8.59155273 40.25224304 C-9.66606689 40.24916641 -10.74058105 40.24608978 -11.84765625 40.24291992 C-12.79648682 40.24434494 -13.74531738 40.24576996 -14.72290039 40.24723816 C-17 40 -17 40 -19 38 C-19.48614753 34.14595311 -19.37041774 30.25617544 -19.375 26.375 C-19.39949219 25.30636719 -19.42398438 24.23773438 -19.44921875 23.13671875 C-19.47456684 16.26738661 -18.67995365 11.83786765 -15 6 C-10.98910439 2.09465428 -5.71891237 -2.32330815 0 0 Z " fill="#7034BE" transform="translate(109,88)"/>
<path d="M0 0 C2.57191889 1.42218396 4.48892839 3.04767075 6.5 5.1875 C9.04171204 4.01440214 11.22883744 2.6966503 13.5625 1.125 C18.97245085 -2.44326546 24.19036062 -2.43992913 30.5 -1.8125 C35.90804938 -0.05337613 39.28785329 3.6904946 42.5 8.1875 C45.66692649 14.94810194 45.71486395 21.61129454 43.3203125 28.66015625 C39.72315058 36.43105867 35.10896562 42.42597199 29.12890625 48.51171875 C26.94704053 50.73248846 24.92960517 52.98729948 22.9375 55.375 C20.21863363 58.480404 17.35683029 61.39552328 14.375 64.25 C13.56804688 65.02472656 12.76109375 65.79945313 11.9296875 66.59765625 C9.5 68.1875 9.5 68.1875 7.13012695 68.0378418 C3.89699018 66.99254194 2.38323974 65.57276608 -0.01171875 63.171875 C-0.84767578 62.33906006 -1.68363281 61.50624512 -2.54492188 60.64819336 C-3.41697266 59.75366455 -4.28902344 58.85913574 -5.1875 57.9375 C-6.08146484 57.02814697 -6.97542969 56.11879395 -7.89648438 55.18188477 C-29.18805709 33.26717248 -29.18805709 33.26717248 -29.9375 19 C-29.1836614 12.43083506 -27.2543139 6.9418139 -22.5 2.1875 C-15.68071784 -2.96175387 -7.81649494 -3.72830974 0 0 Z M-21.5 10.1875 C-23.9434706 14.22453839 -24.08221181 18.57199481 -23.5 23.1875 C-22.67888509 25.97359509 -21.64794666 28.50895779 -20.5 31.1875 C-16.21 31.1875 -11.92 31.1875 -7.5 31.1875 C-6.76686896 29.22137584 -6.03375722 27.25524448 -5.30078125 25.2890625 C-4.67160236 23.63785157 -3.9998218 22.00286743 -3.3125 20.375 C-2.32590674 18.10770725 -2.32590674 18.10770725 -2.5 15.1875 C-0.85 15.1875 0.8 15.1875 2.5 15.1875 C2.65855469 15.7959375 2.81710938 16.404375 2.98046875 17.03125 C5.23418673 25.49825679 7.84966804 33.83843056 10.5 42.1875 C13.12663439 38.24754841 14.19307995 33.97613808 15.46875 29.4609375 C16.0859375 27.4609375 16.0859375 27.4609375 17.5 24.1875 C18.82 23.8575 20.14 23.5275 21.5 23.1875 C22.82 25.8275 24.14 28.4675 25.5 31.1875 C28.8 31.1875 32.1 31.1875 35.5 31.1875 C38.60467693 25.10750769 39.93239607 19.61560614 37.7734375 12.94140625 C36.35129205 9.79071816 34.89919469 7.56321265 32.375 5.1875 C28.03906599 3.67934904 24.03586428 3.53223871 19.5 4.1875 C15.84480573 6.01509713 13.89973107 7.68195777 11.375 10.875 C9.39353451 13.31880744 8.56118051 13.85951637 5.5 14.1875 C5.29375 13.630625 5.0875 13.07375 4.875 12.5 C2.67483331 8.79971966 -0.6366872 6.1191564 -4.5 4.1875 C-12.01082669 3.10275538 -16.63489141 4.24440817 -21.5 10.1875 Z M-0.5 27.1875 C-1.49 30.1575 -2.48 33.1275 -3.5 36.1875 C-9.44 36.6825 -9.44 36.6825 -15.5 37.1875 C-11.16636344 43.25732534 -6.45536532 48.48244164 -1.125 53.6875 C-0.02091797 54.77804688 -0.02091797 54.77804688 1.10546875 55.890625 C2.8991063 57.66096856 4.69726933 59.42642503 6.5 61.1875 C9.90316954 59.71448632 12.14005372 57.80487432 14.7578125 55.1953125 C15.54800781 54.40769531 16.33820312 53.62007812 17.15234375 52.80859375 C17.96832031 51.98488281 18.78429688 51.16117188 19.625 50.3125 C20.44871094 49.49652344 21.27242187 48.68054688 22.12109375 47.83984375 C22.90871094 47.04964844 23.69632813 46.25945312 24.5078125 45.4453125 C25.22598145 44.7248877 25.94415039 44.00446289 26.68408203 43.26220703 C28.39865943 41.30328276 29.47117787 39.56443389 30.5 37.1875 C28.6128125 37.0328125 28.6128125 37.0328125 26.6875 36.875 C22.79683687 36.55609319 22.53300139 36.22050139 19.5 33.1875 C16.035 43.0875 16.035 43.0875 12.5 53.1875 C11.18 52.8575 9.86 52.5275 8.5 52.1875 C7.31152344 49.77905273 7.31152344 49.77905273 6.359375 46.62109375 C6.01132812 45.49638672 5.66328125 44.37167969 5.3046875 43.21289062 C4.95664062 42.02888672 4.60859375 40.84488281 4.25 39.625 C3.88648437 38.43712891 3.52296875 37.24925781 3.1484375 36.02539062 C2.25055227 33.08363506 1.36856251 30.13802076 0.5 27.1875 C0.17 27.1875 -0.16 27.1875 -0.5 27.1875 Z " fill="#7F3EC9" transform="translate(43.5,75.8125)"/>
<path d="M0 0 C0.15984375 0.61488281 0.3196875 1.22976563 0.484375 1.86328125 C2.8746552 5.23308349 6.40525821 5.42178252 10.25 6.1875 C11.00152344 6.35185547 11.75304687 6.51621094 12.52734375 6.68554688 C14.68059556 7.14964216 16.83748274 7.58145661 19 8 C20.09441406 8.21398438 21.18882813 8.42796875 22.31640625 8.6484375 C25.1704966 9.1487775 25.1704966 9.1487775 28.6875 8.4375 C32 8 32 8 35 10 C35.3125 13.5 35.3125 13.5 35 17 C34.34 17.66 33.68 18.32 33 19 C32.63105418 21.03060659 32.63105418 21.03060659 32.5859375 23.3515625 C32.54726562 24.20234375 32.50859375 25.053125 32.46875 25.9296875 C32.4378125 26.81914063 32.406875 27.70859375 32.375 28.625 C32.33632812 29.5221875 32.29765625 30.419375 32.2578125 31.34375 C32.16340643 33.5622927 32.07783252 35.78082403 32 38 C30.68 38 29.36 38 28 38 C28 31.73 28 25.46 28 19 C22.04611378 21.52453308 22.04611378 21.52453308 16.6875 24.6875 C13.21533923 27 13.21533923 27 11 27 C11 28.65 11 30.3 11 32 C10.36755371 32.23267578 9.73510742 32.46535156 9.08349609 32.70507812 C6.82855293 33.82191943 6.82855293 33.82191943 6.14697266 36.12304688 C5.9876123 36.97962891 5.82825195 37.83621094 5.6640625 38.71875 C5.48746094 39.65074219 5.31085938 40.58273438 5.12890625 41.54296875 C4.87947266 43.00669922 4.87947266 43.00669922 4.625 44.5 C4.43550781 45.47582031 4.24601562 46.45164063 4.05078125 47.45703125 C3.34200939 51.20833565 3.34200939 51.20833565 3 55 C3.66 55.66 4.32 56.32 5 57 C5.32378803 60.04360748 5.51045744 62.12921967 3.9375 64.8125 C1.09072753 66.55729603 -1.71846765 66.69042148 -5 67 C-5.495 68.485 -5.495 68.485 -6 70 C-7.32 69.67 -8.64 69.34 -10 69 C-9.38722388 66.03824877 -8.74627478 64.61941217 -7 62 C-7.16095278 59.13159155 -7.8842635 58.11980163 -9.890625 56.04296875 C-10.66921875 55.43066406 -11.4478125 54.81835938 -12.25 54.1875 C-13.01828125 53.56230469 -13.7865625 52.93710937 -14.578125 52.29296875 C-16.93083145 50.75479188 -16.93083145 50.75479188 -19.62109375 51.22265625 C-22.49254158 52.16094544 -24.63094369 53.10475495 -27 55 C-27.66685938 57.54327108 -27.66685938 57.54327108 -27 60 C-26.01 60.66 -25.02 61.32 -24 62 C-24 62.66 -24 63.32 -24 64 C-26.10495964 63.93994409 -28.20911435 63.85114641 -30.3125 63.75 C-31.48425781 63.70359375 -32.65601563 63.6571875 -33.86328125 63.609375 C-37 63 -37 63 -38.9296875 61.1171875 C-40 59 -40 59 -39.8125 56.375 C-39 54 -39 54 -37 52 C-36.34897958 49.38945276 -36.34897958 49.38945276 -35.9296875 46.3359375 C-35.75566406 45.21445312 -35.58164062 44.09296875 -35.40234375 42.9375 C-35.22832031 41.761875 -35.05429687 40.58625 -34.875 39.375 C-34.69324219 38.19164062 -34.51148438 37.00828125 -34.32421875 35.7890625 C-33.87547375 32.86041091 -33.43440444 29.93080727 -33 27 C-33.99 26.67 -34.98 26.34 -36 26 C-36.125 22.625 -36.125 22.625 -36 19 C-34 17 -34 17 -30.3125 16.4375 C-25.35523792 15.43308742 -21.37654987 13.22599568 -17.0625 10.6875 C-16.39968018 10.30843506 -15.73686035 9.92937012 -15.05395508 9.53881836 C-11.11875722 7.14482601 -9.32714569 5.4061237 -8 1 C-5.29120665 -0.35439668 -2.99066732 -0.06501451 0 0 Z M-4 4 C-4.33 4.99 -4.66 5.98 -5 7 C-4.01 7 -3.02 7 -2 7 C-2 6.01 -2 5.02 -2 4 C-2.66 4 -3.32 4 -4 4 Z M2 8 C0.74180167 12.08436417 1.55833074 13.89999469 3.4375 17.75 C3.91058594 18.73484375 4.38367188 19.7196875 4.87109375 20.734375 C5.24363281 21.48203125 5.61617187 22.2296875 6 23 C13.27334843 22.83837003 18.15550206 19.04781684 24 15 C21.26158594 13.17439063 19.65162919 12.50175778 16.55078125 11.7109375 C15.70322266 11.49179687 14.85566406 11.27265625 13.98242188 11.046875 C12.66081055 10.71429688 12.66081055 10.71429688 11.3125 10.375 C10.41982422 10.14554688 9.52714844 9.91609375 8.60742188 9.6796875 C6.40620264 9.11466866 4.20376643 8.55498507 2 8 Z M-16.8125 14.8125 C-17.60076172 15.29009766 -18.38902344 15.76769531 -19.20117188 16.25976562 C-22.14652911 18.06059145 -22.14652911 18.06059145 -25 20 C-25 20.33 -25 20.66 -25 21 C-21.60563644 21.67429967 -18.20929807 22.3380828 -14.8125 23 C-13.37293945 23.28617188 -13.37293945 23.28617188 -11.90429688 23.578125 C-10.97294922 23.75859375 -10.04160156 23.9390625 -9.08203125 24.125 C-7.80162964 24.37636719 -7.80162964 24.37636719 -6.49536133 24.6328125 C-3.95954897 25.00595229 -1.55918603 25.06412996 1 25 C2.31322091 22.95786928 2.31322091 22.95786928 1.1796875 20.46875 C0.74914062 19.4890625 0.31859375 18.509375 -0.125 17.5 C-0.54007813 16.5203125 -0.95515625 15.540625 -1.3828125 14.53125 C-2.8452031 11.92821883 -2.8452031 11.92821883 -5.12890625 10.35546875 C-9.82740148 9.77375029 -12.94159647 12.34978769 -16.8125 14.8125 Z M28 12 C28 12.99 28 13.98 28 15 C28.99 15 29.98 15 31 15 C30.67 14.01 30.34 13.02 30 12 C29.34 12 28.68 12 28 12 Z M-32 21 C-31.67 21.99 -31.34 22.98 -31 24 C-30.34 24 -29.68 24 -29 24 C-29 23.01 -29 22.02 -29 21 C-29.99 21 -30.98 21 -32 21 Z M-25 25 C-26.12642186 28.37926557 -25.96344705 28.72928278 -24.56640625 31.79296875 C-24.24736328 32.50517578 -23.92832031 33.21738281 -23.59960938 33.95117188 C-23.25736328 34.68916016 -22.91511719 35.42714844 -22.5625 36.1875 C-22.22412109 36.93708984 -21.88574219 37.68667969 -21.53710938 38.45898438 C-20.7000589 40.30992698 -19.85114596 42.15549666 -19 44 C-16.22561876 42.68779266 -13.79209828 41.22517631 -11.328125 39.3984375 C-10.66425781 38.90859375 -10.00039062 38.41875 -9.31640625 37.9140625 C-8.63449219 37.40617187 -7.95257813 36.89828125 -7.25 36.375 C-6.55261719 35.859375 -5.85523437 35.34375 -5.13671875 34.8125 C-3.42244733 33.54440881 -1.71094844 32.2725711 0 31 C-0.33 30.34 -0.66 29.68 -1 29 C-3.41819522 28.34055738 -3.41819522 28.34055738 -6.34765625 27.9296875 C-7.42724609 27.75566406 -8.50683594 27.58164062 -9.61914062 27.40234375 C-10.75544922 27.22832031 -11.89175781 27.05429687 -13.0625 26.875 C-14.20267578 26.69324219 -15.34285156 26.51148437 -16.51757812 26.32421875 C-19.34389333 25.87484646 -22.17126438 25.43382997 -25 25 Z M4 27 C4 27.99 4 28.98 4 30 C4.99 30 5.98 30 7 30 C7 29.01 7 28.02 7 27 C6.01 27 5.02 27 4 27 Z M-29 31 C-29.99 37.93 -30.98 44.86 -32 52 C-28.29499816 50.51799926 -25.32738 49.091496 -22 47 C-23.74807129 41.53262809 -25.65794081 36.24175152 -28 31 C-28.33 31 -28.66 31 -29 31 Z M-4.3125 38.1875 C-5.25738281 38.96480469 -6.20226562 39.74210937 -7.17578125 40.54296875 C-9.91065516 42.92227122 -12.46999685 45.40547947 -15 48 C-13.23754778 49.1999038 -11.46473019 50.38459517 -9.6875 51.5625 C-8.70136719 52.22378906 -7.71523437 52.88507812 -6.69921875 53.56640625 C-5.80847656 54.03949219 -4.91773438 54.51257813 -4 55 C-3.01 54.67 -2.02 54.34 -1 54 C0.32 47.4 1.64 40.8 3 34 C-0.23330369 34 -1.87693242 36.16719834 -4.3125 38.1875 Z M-35 56 C-35 56.99 -35 57.98 -35 59 C-34.01 58.67 -33.02 58.34 -32 58 C-32 57.34 -32 56.68 -32 56 C-32.99 56 -33.98 56 -35 56 Z M-1 58 C-1.33 58.99 -1.66 59.98 -2 61 C-1.01 61 -0.02 61 1 61 C0.67 60.01 0.34 59.02 0 58 C-0.33 58 -0.66 58 -1 58 Z " fill="#6180E4" transform="translate(92,8)"/>
<path d="M0 0 C2.26921536 -0.13489391 4.5407067 -0.23193995 6.8125 -0.3125 C8.70935547 -0.39951172 8.70935547 -0.39951172 10.64453125 -0.48828125 C11.75183594 -0.32714844 12.85914063 -0.16601562 14 0 C16.30909389 3.20867616 17.7007604 6.55367776 19.0078125 10.265625 C19.35457031 11.23757812 19.70132812 12.20953125 20.05859375 13.2109375 C20.41050781 14.21382812 20.76242187 15.21671875 21.125 16.25 C21.83347611 18.25607931 22.54428581 20.26133654 23.2578125 22.265625 C23.5686377 23.15024414 23.87946289 24.03486328 24.19970703 24.94628906 C24.82582113 26.95985733 24.82582113 26.95985733 26 28 C26.29245605 27.22285645 26.58491211 26.44571289 26.88623047 25.64501953 C28.21023985 22.13621084 29.54250676 18.63059517 30.875 15.125 C31.33519531 13.90167969 31.79539062 12.67835937 32.26953125 11.41796875 C32.93662109 9.66806641 32.93662109 9.66806641 33.6171875 7.8828125 C34.22989502 6.26463623 34.22989502 6.26463623 34.85498047 4.61376953 C36 2 36 2 38 0 C41.0390625 -0.1953125 41.0390625 -0.1953125 44.625 -0.125 C46.40777344 -0.09792969 46.40777344 -0.09792969 48.2265625 -0.0703125 C49.14179687 -0.04710937 50.05703125 -0.02390625 51 0 C52.14315747 2.28631494 52.12112732 3.54347406 52.11352539 6.08251953 C52.11344986 6.92324005 52.11337433 7.76396057 52.11329651 8.63015747 C52.10555458 9.99272171 52.10555458 9.99272171 52.09765625 11.3828125 C52.0962413 12.31221649 52.09482635 13.24162048 52.09336853 14.19918823 C52.08776053 17.17449124 52.07520668 20.14971964 52.0625 23.125 C52.05748603 25.13932183 52.05292295 27.15364484 52.04882812 29.16796875 C52.0377885 34.11200802 52.02051849 39.05599135 52 44 C50.52093108 44.02689216 49.04172517 44.04634621 47.5625 44.0625 C46.73878906 44.07410156 45.91507813 44.08570313 45.06640625 44.09765625 C43 44 43 44 42 43 C41.8415735 40.9291528 41.74875578 38.85321971 41.68359375 36.77734375 C41.64169922 35.51728516 41.59980469 34.25722656 41.55664062 32.95898438 C41.51682404 31.61849264 41.47711186 30.2779978 41.4375 28.9375 C41.39431958 27.59308477 41.35070544 26.2486834 41.30664062 24.90429688 C41.20014642 21.6029766 41.0981354 18.30157764 41 15 C40.55346069 16.21115479 40.55346069 16.21115479 40.09790039 17.44677734 C38.99367229 20.44011742 37.88842063 23.43307695 36.7824707 26.42578125 C36.30386896 27.72152772 35.82567643 29.01742541 35.34790039 30.31347656 C34.66139408 32.17552692 33.97329748 34.03699072 33.28515625 35.8984375 C32.87144775 37.01911621 32.45773926 38.13979492 32.03149414 39.29443359 C31 42 31 42 30 44 C27.03 44 24.06 44 21 44 C16.85356334 34.47787333 13.40205168 24.81056764 10 15 C9.67 24.57 9.34 34.14 9 44 C6.03 44 3.06 44 0 44 C-1.91811925 42.08188075 -1.12906827 39.23882512 -1.13894653 36.68690491 C-1.1369223 35.80151535 -1.13489807 34.91612579 -1.1328125 34.00390625 C-1.13376923 33.1000267 -1.13472595 32.19614716 -1.13571167 31.26487732 C-1.1363936 29.34902884 -1.13453841 27.43317806 -1.13037109 25.51733398 C-1.12502919 22.57856058 -1.13031245 19.63994045 -1.13671875 16.70117188 C-1.13605785 14.84374966 -1.13477644 12.98632754 -1.1328125 11.12890625 C-1.13483673 10.24554092 -1.13686096 9.3621756 -1.13894653 8.45204163 C-1.11495408 2.22990815 -1.11495408 2.22990815 0 0 Z " fill="#000000" transform="translate(467,61)"/>
<path d="M0 0 C1.15774933 -0.0030011 2.31549866 -0.0060022 3.5083313 -0.00909424 C4.75838959 0.00325256 6.00844788 0.01559937 7.29638672 0.02832031 C8.57714081 0.03019348 9.8578949 0.03206665 11.17745972 0.03399658 C13.88601315 0.03859643 16.59426872 0.05301218 19.30273438 0.07519531 C22.78106493 0.10353409 26.25916147 0.11441271 29.73759651 0.11887741 C33.04889627 0.12402255 36.36011493 0.13856125 39.67138672 0.15332031 C40.92549347 0.15757019 42.17960022 0.16182007 43.47171021 0.16619873 C44.62315521 0.17580627 45.77460022 0.18541382 46.9609375 0.1953125 C48.48957932 0.2055545 48.48957932 0.2055545 50.04910278 0.21600342 C52.35107422 0.35644531 52.35107422 0.35644531 53.35107422 1.35644531 C53.44954388 2.91643579 53.4790604 4.48085076 53.48046875 6.04394531 C53.48362091 7.04167969 53.48677307 8.03941406 53.49002075 9.06738281 C53.48799652 10.15277344 53.48597229 11.23816406 53.48388672 12.35644531 C53.48484344 13.46246094 53.48580017 14.56847656 53.48678589 15.70800781 C53.48746788 18.05175839 53.48561226 20.39551084 53.48144531 22.73925781 C53.47609736 26.34086319 53.48138968 29.94234385 53.48779297 33.54394531 C53.48713219 35.81477892 53.48585104 38.08561246 53.48388672 40.35644531 C53.48591095 41.44183594 53.48793518 42.52722656 53.49002075 43.64550781 C53.48529251 45.14210938 53.48529251 45.14210938 53.48046875 46.66894531 C53.47967316 47.55195312 53.47887756 48.43496094 53.47805786 49.34472656 C53.35107422 51.35644531 53.35107422 51.35644531 52.35107422 52.35644531 C50.49932716 52.51430839 48.64198312 52.60751887 46.78466797 52.67285156 C45.65996094 52.71474609 44.53525391 52.75664063 43.37646484 52.79980469 C42.19246094 52.83912109 41.00845703 52.8784375 39.78857422 52.91894531 C38.60070312 52.96212891 37.41283203 53.0053125 36.18896484 53.04980469 C33.24312638 53.15628078 30.29719992 53.25829372 27.35107422 53.35644531 C27.71458984 53.97165039 28.07810547 54.58685547 28.45263672 55.22070312 C30.0944647 58.01075825 31.72286653 60.80842174 33.35107422 63.60644531 C33.92341797 64.57453125 34.49576172 65.54261719 35.08544922 66.54003906 C35.62685547 67.47460938 36.16826172 68.40917969 36.72607422 69.37207031 C37.22880859 70.2309082 37.73154297 71.08974609 38.24951172 71.97460938 C39.35107422 74.35644531 39.35107422 74.35644531 39.35107422 78.35644531 C37.12060547 78.29785156 37.12060547 78.29785156 34.35107422 77.35644531 C32.67363395 74.98812214 31.3534782 72.84640598 30.03857422 70.29394531 C29.67957031 69.63072266 29.32056641 68.9675 28.95068359 68.28417969 C28.06881445 66.6497822 27.20786828 65.00412619 26.35107422 63.35644531 C26.35107422 67.97644531 26.35107422 72.59644531 26.35107422 77.35644531 C23.87607422 77.85144531 23.87607422 77.85144531 21.35107422 78.35644531 C21.02107422 73.40644531 20.69107422 68.45644531 20.35107422 63.35644531 C19.23732422 65.31582031 18.12357422 67.27519531 16.97607422 69.29394531 C13.60107422 75.23144531 13.60107422 75.23144531 11.35107422 76.35644531 C11.20834492 67.3237197 14.8199549 60.90436732 19.35107422 53.35644531 C18.18189453 53.3190625 17.01271484 53.28167969 15.80810547 53.24316406 C14.25989747 53.17748251 12.7117218 53.11103593 11.16357422 53.04394531 C10.39464844 53.02138672 9.62572266 52.99882813 8.83349609 52.97558594 C4.20853274 52.75724003 1.18057488 52.21897787 -2.64892578 49.35644531 C-2.31892578 48.36644531 -1.98892578 47.37644531 -1.64892578 46.35644531 C15.18107422 46.35644531 32.01107422 46.35644531 49.35107422 46.35644531 C49.35107422 33.15644531 49.35107422 19.95644531 49.35107422 6.35644531 C32.19107422 6.35644531 15.03107422 6.35644531 -2.64892578 6.35644531 C-2.64892578 10.31644531 -2.64892578 14.27644531 -2.64892578 18.35644531 C-6.64892578 16.35644531 -6.64892578 16.35644531 -8.64892578 14.35644531 C-8.94970703 11.86035156 -8.94970703 11.86035156 -8.96142578 8.91894531 C-8.97818359 7.95085938 -8.99494141 6.98277344 -9.01220703 5.98535156 C-8.64892578 3.35644531 -8.64892578 3.35644531 -7.47927856 1.7144165 C-4.9263137 -0.17967341 -3.16113555 -0.01129077 0 0 Z " fill="#42A5E5" transform="translate(139.64892578125,36.6435546875)"/>
<path d="M0 0 C2.97 0 5.94 0 9 0 C14 14.77272727 14 14.77272727 14 20 C14.66 20 15.32 20 16 20 C16.16435547 18.96552734 16.16435547 18.96552734 16.33203125 17.91015625 C17.38301632 11.68114718 18.85695615 5.94207612 21 0 C23.97 0 26.94 0 30 0 C30.34933594 1.28777344 30.69867188 2.57554688 31.05859375 3.90234375 C31.51805322 5.58077734 31.97769822 7.25916015 32.4375 8.9375 C32.66759766 9.78763672 32.89769531 10.63777344 33.13476562 11.51367188 C33.35712891 12.32255859 33.57949219 13.13144531 33.80859375 13.96484375 C34.01282959 14.7137085 34.21706543 15.46257324 34.42749023 16.23413086 C34.85391799 18.00543922 34.85391799 18.00543922 36 19 C37.65 12.73 39.3 6.46 41 0 C43.97 0 46.94 0 50 0 C49.44690772 7.37456375 47.72128365 13.96147469 45.5 21 C45.01853516 22.57201172 45.01853516 22.57201172 44.52734375 24.17578125 C42.14773261 31.85226739 42.14773261 31.85226739 41 33 C37.3308423 33.14310287 33.67284559 33.04221662 30 33 C27.525 25.08 27.525 25.08 25 17 C23.35 22.28 21.7 27.56 20 33 C16.37 33 12.74 33 9 33 C6.681109 27.00430885 4.67082794 20.96563029 2.8125 14.8125 C2.53986328 13.93658203 2.26722656 13.06066406 1.98632812 12.15820312 C1.60057617 10.88299805 1.60057617 10.88299805 1.20703125 9.58203125 C0.9747583 8.82124268 0.74248535 8.0604541 0.50317383 7.27661133 C-0.04640113 4.79005797 -0.08651901 2.53873106 0 0 Z " fill="#000000" transform="translate(356,72)"/>
<path d="M0 0 C2.625 1.5625 2.625 1.5625 3.625 2.5625 C3.66580783 4.56208364 3.66754356 6.56295254 3.625 8.5625 C0.1425637 9.7309996 -0.36633442 9.56602498 -4.0625 8.0625 C-8.67048999 6.20554881 -12.61728771 6.07344501 -17.375 7.5625 C-21.06031093 10.38529135 -23.22227374 13.05638825 -24.375 17.5625 C-24.85600568 23.5269704 -24.25989852 27.30786342 -21.375 32.5625 C-18.03210881 36.27682354 -14.13004672 36.18511534 -9.375 36.5625 C-8.385 36.5625 -7.395 36.5625 -6.375 36.5625 C-6.375 32.9325 -6.375 29.3025 -6.375 25.5625 C-9.675 25.5625 -12.975 25.5625 -16.375 25.5625 C-16.375 23.2525 -16.375 20.9425 -16.375 18.5625 C-10.105 18.5625 -3.835 18.5625 2.625 18.5625 C4.44933189 22.21116378 3.89544726 26.48256123 3.9375 30.5 C3.96650391 31.41974609 3.99550781 32.33949219 4.02539062 33.28710938 C4.03376953 34.17076172 4.04214844 35.05441406 4.05078125 35.96484375 C4.06536377 36.77429443 4.07994629 37.58374512 4.0949707 38.41772461 C3.625 40.5625 3.625 40.5625 1.7109375 42.30810547 C-4.448235 46.01197114 -12.43959454 45.0783566 -19.375 44.5625 C-24.03139026 43.38561015 -27.27337235 41.60614725 -30.75 38.3125 C-35.39310837 30.45493199 -36.90047441 22.87324235 -34.71875 13.84765625 C-32.31534449 6.95858442 -28.62383462 2.69792465 -22.11328125 -0.57421875 C-15.64432513 -2.61364714 -6.33029289 -2.69037448 0 0 Z " fill="#000000" transform="translate(315.375,61.4375)"/>
<path d="M0 0 C3.3950652 2.73491364 6.28344512 5.87939023 8.25 9.8125 C8.77666158 15.09638337 8.93713407 19.46277236 6.5 24.25 C5.7575 25.095625 5.015 25.94125 4.25 26.8125 C3.610625 27.555 2.97125 28.2975 2.3125 29.0625 C-1.01788916 31.88828474 -3.7410312 32.69827712 -8.0625 33.1875 C-13.88430209 32.59545233 -18.09160188 30.55818224 -22.125 26.3125 C-25.75142467 20.73338512 -26.60239304 16.4632704 -25.75 9.8125 C-23.12270935 4.55791869 -19.52228046 1.4296636 -14.5 -1.5 C-9.49551477 -2.75112131 -4.70649276 -2.03234915 0 0 Z " fill="#7035BE" transform="translate(127.75,53.1875)"/>
<path d="M0 0 C2.3125 1.625 2.3125 1.625 3.3125 3.625 C3.352492 5.62460012 3.35596799 7.62547242 3.3125 9.625 C1.6875 10.3125 1.6875 10.3125 -0.6875 10.625 C-1.615625 10.13 -2.54375 9.635 -3.5 9.125 C-8.26099767 6.88453051 -11.84724604 8.01158201 -16.6875 9.625 C-19.53255146 15.16536336 -19.21930563 21.55909208 -18.6875 27.625 C-17.45428327 31.38955632 -16.75011171 32.94610918 -13.4375 35.0625 C-9.90037803 35.78600222 -7.19895661 35.40532369 -3.6875 34.625 C-2.6975 33.965 -1.7075 33.305 -0.6875 32.625 C0.6325 32.625 1.9525 32.625 3.3125 32.625 C3.625 35.875 3.625 35.875 3.3125 39.625 C-0.84707177 43.89699263 -4.56818152 44.79623297 -10.375 44.9375 C-16.00581691 44.87622146 -20.19355583 44.12028991 -24.6875 40.625 C-29.80257299 34.7022839 -31.14029881 27.65618083 -30.94140625 19.9921875 C-30.25119975 13.55733923 -28.55767554 7.10029644 -23.6875 2.625 C-16.6542617 -2.5349787 -8.06677185 -3.00794882 0 0 Z " fill="#000000" transform="translate(273.6875,61.375)"/>
<path d="M0 0 C8.58 0 17.16 0 26 0 C26 2.31 26 4.62 26 7 C20.39 7 14.78 7 9 7 C9 10.63 9 14.26 9 18 C13.95 18 18.9 18 24 18 C24 20.31 24 22.62 24 25 C19.05 25 14.1 25 9 25 C9 28.96 9 32.92 9 37 C14.61 37 20.22 37 26 37 C26 39.31 26 41.62 26 44 C17.42 44 8.84 44 0 44 C-1.68335939 40.63328122 -1.14154289 36.827034 -1.1328125 33.125 C-1.13376923 32.24473145 -1.13472595 31.36446289 -1.13571167 30.45751953 C-1.13639276 28.59472584 -1.13454343 26.73192977 -1.13037109 24.86914062 C-1.12502184 22.01166472 -1.13031849 19.154346 -1.13671875 16.296875 C-1.13605796 14.48958299 -1.13477677 12.68229107 -1.1328125 10.875 C-1.13483673 10.01664551 -1.13686096 9.15829102 -1.13894653 8.27392578 C-1.11495872 2.22991745 -1.11495872 2.22991745 0 0 Z " fill="#000000" transform="translate(213,61)"/>
<path d="M0 0 C4.89127832 4.76256047 6.00767219 8.73681415 6.43359375 15.4609375 C6.32949356 20.52714694 5.36360625 25.1017622 1.90625 28.9453125 C-3.50139103 33.58422025 -7.48283877 33.65120875 -14.4140625 33.59765625 C-19.71479191 33.12691021 -21.89595928 31.220407 -25.4375 27.3125 C-28.47336054 22.19947172 -28.18223576 16.06794938 -27.625 10.3125 C-26.33564403 5.62887561 -24.37962603 2.95473492 -20.6875 -0.1875 C-14.33477975 -3.26760679 -6.26083704 -2.91452759 0 0 Z M-15.5 7.0625 C-18.56295554 11.74702024 -18.63610442 15.86558263 -17.625 21.3125 C-15.74583474 24.69550481 -15.74583474 24.69550481 -12.625 26.3125 C-9.46475058 26.73024107 -9.46475058 26.73024107 -6.625 25.3125 C-3.58365824 21.05462154 -3.07355788 17.45929312 -3.625 12.3125 C-4.57538653 8.90992945 -4.57538653 8.90992945 -6.625 6.3125 C-10.52476826 4.70172615 -11.89125195 4.86587075 -15.5 7.0625 Z " fill="#000000" transform="translate(647.625,72.6875)"/>
<path d="M0 0 C4.23900184 1.85921133 5.57289618 3.25968671 7.875 7.25 C9.16022226 11.53407419 9.30619201 14.56021585 9 19 C8 20 8 20 6.05053711 20.11352539 C5.2178833 20.10828857 4.38522949 20.10305176 3.52734375 20.09765625 C2.62822266 20.09443359 1.72910156 20.09121094 0.80273438 20.08789062 C-0.14279297 20.07951172 -1.08832031 20.07113281 -2.0625 20.0625 C-3.01189453 20.05798828 -3.96128906 20.05347656 -4.93945312 20.04882812 C-7.29303065 20.0370011 -9.64648477 20.02052025 -12 20 C-10.47444034 24.81122847 -10.47444034 24.81122847 -7 28 C-4.62216895 27.91161539 -2.24654854 27.75653579 0.125 27.5625 C2.04699219 27.40974609 2.04699219 27.40974609 4.0078125 27.25390625 C4.99523437 27.17011719 5.98265625 27.08632812 7 27 C7 28.98 7 30.96 7 33 C0.7558381 35.95092717 -7.56703895 36.56933293 -14.140625 34.2421875 C-17.54636838 32.05769553 -20.36760045 29.06967126 -21.55859375 25.171875 C-22.95371308 18.30739403 -22.5938467 11.12651819 -19 5 C-13.09818583 -0.6139208 -7.90811621 -0.72361848 0 0 Z M-10.1875 7.75 C-12.41821969 10.03763076 -12.41821969 10.03763076 -12 14 C-8.04 14 -4.08 14 0 14 C-1.26946514 9.17557816 -1.26946514 9.17557816 -5 6 C-8.07646007 5.68765248 -8.07646007 5.68765248 -10.1875 7.75 Z " fill="#000000" transform="translate(547,71)"/>
<path d="M0 0 C4.11808435 2.36570803 5.56315208 4.562769 7 9 C7.22705078 11.86254883 7.22705078 11.86254883 7.1953125 14.95703125 C7.18886719 16.06884766 7.18242188 17.18066406 7.17578125 18.32617188 C7.15902344 19.47666016 7.14226563 20.62714844 7.125 21.8125 C7.11597656 22.98232422 7.10695313 24.15214844 7.09765625 25.35742188 C7.07413732 28.23849053 7.04126852 31.11913989 7 34 C5.52093108 34.02689216 4.04172517 34.04634621 2.5625 34.0625 C1.32693359 34.07990234 1.32693359 34.07990234 0.06640625 34.09765625 C-2 34 -2 34 -3 33 C-3.15786308 31.14825294 -3.25107356 29.2909089 -3.31640625 27.43359375 C-3.35830078 26.30888672 -3.40019531 25.18417969 -3.44335938 24.02539062 C-3.48267578 22.84138672 -3.52199219 21.65738281 -3.5625 20.4375 C-3.60568359 19.24962891 -3.64886719 18.06175781 -3.69335938 16.83789062 C-3.79983546 13.89205216 -3.90184841 10.9461257 -4 8 C-8.1541247 8.43871601 -8.1541247 8.43871601 -11.84301758 10.2434082 C-13.39526558 12.60011307 -13.43045645 14.29379333 -13.51171875 17.10546875 C-13.54716797 18.08837891 -13.58261719 19.07128906 -13.61914062 20.08398438 C-13.65297852 21.62022461 -13.65297852 21.62022461 -13.6875 23.1875 C-13.72166016 24.22326172 -13.75582031 25.25902344 -13.79101562 26.32617188 C-13.87352642 28.8840066 -13.94266572 31.44149723 -14 34 C-16.97 34 -19.94 34 -23 34 C-23 23.11 -23 12.22 -23 1 C-20.36 1 -17.72 1 -15 1 C-14.67 1.66 -14.34 2.32 -14 3 C-13.360625 2.505 -12.72125 2.01 -12.0625 1.5 C-7.95191239 -0.51334903 -4.50204282 -0.7353609 0 0 Z " fill="#000000" transform="translate(585,71)"/>
<path d="M0 0 C4.11808435 2.36570803 5.56315208 4.562769 7 9 C7.22705078 11.86254883 7.22705078 11.86254883 7.1953125 14.95703125 C7.18886719 16.06884766 7.18242187 17.18066406 7.17578125 18.32617188 C7.15902344 19.47666016 7.14226562 20.62714844 7.125 21.8125 C7.11597656 22.98232422 7.10695313 24.15214844 7.09765625 25.35742188 C7.07413732 28.23849053 7.04126852 31.11913989 7 34 C5.52093108 34.02689216 4.04172517 34.04634621 2.5625 34.0625 C1.32693359 34.07990234 1.32693359 34.07990234 0.06640625 34.09765625 C-2 34 -2 34 -3 33 C-3.15786308 31.14825294 -3.25107356 29.2909089 -3.31640625 27.43359375 C-3.35830078 26.30888672 -3.40019531 25.18417969 -3.44335938 24.02539062 C-3.48267578 22.84138672 -3.52199219 21.65738281 -3.5625 20.4375 C-3.60568359 19.24962891 -3.64886719 18.06175781 -3.69335938 16.83789062 C-3.79983546 13.89205216 -3.90184841 10.9461257 -4 8 C-8.1541247 8.43871601 -8.1541247 8.43871601 -11.84301758 10.2434082 C-13.39526558 12.60011307 -13.43045645 14.29379333 -13.51171875 17.10546875 C-13.54716797 18.08837891 -13.58261719 19.07128906 -13.61914062 20.08398438 C-13.65297852 21.62022461 -13.65297852 21.62022461 -13.6875 23.1875 C-13.72166016 24.22326172 -13.75582031 25.25902344 -13.79101562 26.32617188 C-13.87352642 28.8840066 -13.94266572 31.44149723 -14 34 C-16.97 34 -19.94 34 -23 34 C-23 23.11 -23 12.22 -23 1 C-20.36 1 -17.72 1 -15 1 C-14.67 1.66 -14.34 2.32 -14 3 C-13.360625 2.505 -12.72125 2.01 -12.0625 1.5 C-7.95191239 -0.51334903 -4.50204282 -0.7353609 0 0 Z " fill="#000000" transform="translate(451,71)"/>
<path d="M0 0 C4.82380802 -0.0246519 9.64757967 -0.04283693 14.47143555 -0.05493164 C16.11369464 -0.05997174 17.75594923 -0.06680378 19.39819336 -0.07543945 C21.75375479 -0.08751926 24.10925709 -0.09323139 26.46484375 -0.09765625 C27.20339096 -0.10281754 27.94193817 -0.10797882 28.7028656 -0.11329651 C30.46898088 -0.1134925 32.23497146 -0.06194719 34 0 C35 1 35 1 35.125 3.5 C35 6 35 6 34 7 C30.04 7 26.08 7 22 7 C22 19.21 22 31.42 22 44 C19.03 44 16.06 44 13 44 C12 43 12 43 11.88647461 39.58178711 C11.88663372 38.06363012 11.89232774 36.54546771 11.90234375 35.02734375 C11.9037587 34.22970108 11.90517365 33.43205841 11.90663147 32.61024475 C11.91224684 30.05262565 11.92480188 27.49509282 11.9375 24.9375 C11.94251302 23.20768355 11.94707627 21.47786574 11.95117188 19.74804688 C11.96222125 15.49866447 11.97949614 11.24934688 12 7 C8.04 7 4.08 7 0 7 C0 4.69 0 2.38 0 0 Z " fill="#000000" transform="translate(322,61)"/>
<path d="M0 0 C1.23556641 0.01740234 1.23556641 0.01740234 2.49609375 0.03515625 C3.32238281 0.04417969 4.14867187 0.05320313 5 0.0625 C5.63808594 0.07410156 6.27617188 0.08570313 6.93359375 0.09765625 C6.93359375 2.73765625 6.93359375 5.37765625 6.93359375 8.09765625 C8.06796875 8.07703125 9.20234375 8.05640625 10.37109375 8.03515625 C13.93359375 8.09765625 13.93359375 8.09765625 14.93359375 9.09765625 C15.05859375 11.59765625 15.05859375 11.59765625 14.93359375 14.09765625 C14.60359375 14.42765625 14.27359375 14.75765625 13.93359375 15.09765625 C11.62359375 15.09765625 9.31359375 15.09765625 6.93359375 15.09765625 C7.26359375 21.03765625 7.59359375 26.97765625 7.93359375 33.09765625 C10.26676591 33.8753803 12.54795298 34.52181193 14.93359375 35.09765625 C15.05859375 37.47265625 15.05859375 37.47265625 14.93359375 40.09765625 C12.45340622 42.57784378 11.54843424 42.42127183 8.12109375 42.47265625 C4.51665661 42.39973411 3.07874412 42.18059932 -0.12890625 40.34765625 C-3.05486158 36.94977264 -3.19365272 33.93013414 -3.1640625 29.55078125 C-3.15922852 28.28427734 -3.15922852 28.28427734 -3.15429688 26.9921875 C-3.14591797 26.11949219 -3.13753906 25.24679688 -3.12890625 24.34765625 C-3.12439453 23.45949219 -3.11988281 22.57132813 -3.11523438 21.65625 C-3.10348025 19.46998296 -3.08704874 17.28385446 -3.06640625 15.09765625 C-4.71640625 14.76765625 -6.36640625 14.43765625 -8.06640625 14.09765625 C-8.06640625 12.44765625 -8.06640625 10.79765625 -8.06640625 9.09765625 C-6.41640625 8.76765625 -4.76640625 8.43765625 -3.06640625 8.09765625 C-3.08703125 6.96328125 -3.10765625 5.82890625 -3.12890625 4.66015625 C-3.04967763 0.14412465 -3.04967763 0.14412465 0 0 Z " fill="#000000" transform="translate(603.06640625,63.90234375)"/>
<path d="M0 0 C0 2.97 0 5.94 0 9 C-0.9075 8.896875 -1.815 8.79375 -2.75 8.6875 C-6.06342595 8.68851286 -6.06342595 8.68851286 -8.15625 10.875 C-10.77103757 15.30684333 -10.67131563 19.25166455 -10.75 24.3125 C-10.77964844 25.24384766 -10.80929687 26.17519531 -10.83984375 27.13476562 C-10.91024225 29.4227169 -10.95742069 31.71136198 -11 34 C-13.97 34 -16.94 34 -20 34 C-20 23.11 -20 12.22 -20 1 C-17.36 1 -14.72 1 -12 1 C-11.67 1.66 -11.34 2.32 -11 3 C-10.67 2.505 -10.34 2.01 -10 1.5 C-6.82427253 -0.88179561 -3.89753934 -0.19168226 0 0 Z " fill="#000000" transform="translate(680,71)"/>
<path d="M0 0 C0 3.63 0 7.26 0 11 C-1.32 11.33 -2.64 11.66 -4 12 C-4.66 11.01 -5.32 10.02 -6 9 C-7.27160666 10.58271233 -8.54225285 12.16619635 -9.8125 13.75 C-10.52019531 14.63171875 -11.22789062 15.5134375 -11.95703125 16.421875 C-13.67505002 18.58992929 -15.35373976 20.77728901 -17 23 C-20.67420866 22.69381595 -21.78135513 22.24228216 -24.3125 19.4375 C-24.869375 18.633125 -25.42625 17.82875 -26 17 C-29.66786393 18.50349377 -31.68910393 20.63728792 -34.25 23.625 C-34.95640625 24.44226563 -35.6628125 25.25953125 -36.390625 26.1015625 C-36.92171875 26.72804688 -37.4528125 27.35453125 -38 28 C-39.32 27.34 -40.64 26.68 -42 26 C-39.75234289 21.98947457 -37.14667604 18.58752847 -34.125 15.125 C-33.28195313 14.13757813 -32.43890625 13.15015625 -31.5703125 12.1328125 C-29 10 -29 10 -26.31640625 10.0234375 C-23.21180023 11.33229332 -21.95196845 13.30762973 -20 16 C-19.34 16.33 -18.68 16.66 -18 17 C-17.73445313 16.42765625 -17.46890625 15.8553125 -17.1953125 15.265625 C-15.94323109 12.8923988 -14.5063648 10.87786714 -12.875 8.75 C-12.33617187 8.04359375 -11.79734375 7.3371875 -11.2421875 6.609375 C-10.83226562 6.07828125 -10.42234375 5.5471875 -10 5 C-11.32 4.67 -12.64 4.34 -14 4 C-13.67 2.68 -13.34 1.36 -13 0 C-11.58800422 -0.39222105 -10.17007236 -0.76311059 -8.75 -1.125 C-7.96109375 -1.33382812 -7.1721875 -1.54265625 -6.359375 -1.7578125 C-4 -2 -4 -2 0 0 Z " fill="#40ABE5" transform="translate(184,51)"/>
<path d="M0 0 C2.97 0 5.94 0 9 0 C9 10.89 9 21.78 9 33 C6.03 33 3.06 33 0 33 C0 22.11 0 11.22 0 0 Z " fill="#000000" transform="translate(411,72)"/>
<path d="M0 0 C2.26171875 0.94921875 2.26171875 0.94921875 3.57421875 3.01171875 C3.91453125 3.97078125 3.91453125 3.97078125 4.26171875 4.94921875 C2.94171875 3.95921875 1.62171875 2.96921875 0.26171875 1.94921875 C-0.72828125 2.44421875 -0.72828125 2.44421875 -1.73828125 2.94921875 C-1.07828125 3.27921875 -0.41828125 3.60921875 0.26171875 3.94921875 C0.26171875 4.60921875 0.26171875 5.26921875 0.26171875 5.94921875 C-0.41890625 6.48546875 -1.09953125 7.02171875 -1.80078125 7.57421875 C-5.59851413 10.64472619 -8.60047049 14.22363364 -11.73828125 17.94921875 C-13.05828125 17.28921875 -14.37828125 16.62921875 -15.73828125 15.94921875 C-13.49062414 11.93869332 -10.88495729 8.53674722 -7.86328125 5.07421875 C-7.02023438 4.08679688 -6.1771875 3.099375 -5.30859375 2.08203125 C-2.73828125 -0.05078125 -2.73828125 -0.05078125 0 0 Z " fill="#489DE3" transform="translate(157.73828125,61.05078125)"/>
<path d="M0 0 C5.97873264 0.11935764 5.97873264 0.11935764 7.08984375 1.23046875 C7.32513787 6.75988051 7.32513787 6.75988051 6.08984375 9.23046875 C3.11984375 9.23046875 0.14984375 9.23046875 -2.91015625 9.23046875 C-3.53515625 5.85546875 -3.53515625 5.85546875 -3.91015625 2.23046875 C-1.91015625 0.23046875 -1.91015625 0.23046875 0 0 Z " fill="#000000" transform="translate(413.91015625,58.76953125)"/>
<path d="M0 0 C6.27 0 12.54 0 19 0 C19 0.33 19 0.66 19 1 C15.37 1 11.74 1 8 1 C7.67 2.32 7.34 3.64 7 5 C11.95 5 16.9 5 22 5 C22 5.33 22 5.66 22 6 C19.10359882 6.08120751 16.20949088 6.14059421 13.3125 6.1875 C12.49587891 6.21263672 11.67925781 6.23777344 10.83789062 6.26367188 C6.02153514 6.32217012 2.96024846 6.07302376 -1 3 C-0.67 2.01 -0.34 1.02 0 0 Z " fill="#4686D4" transform="translate(138,83)"/>
<path d="M0 0 C0 0.33 0 0.66 0 1 C-1.65 1.33 -3.3 1.66 -5 2 C-5.91692961 4.75078884 -6.10886083 6.35948913 -6.0625 9.1875 C-6.041875 10.445625 -6.02125 11.70375 -6 13 C-5.67 13 -5.34 13 -5 13 C-5 11.02 -5 9.04 -5 7 C-4.34 6.67 -3.68 6.34 -3 6 C-3 9.96 -3 13.92 -3 18 C-7 16 -7 16 -9 14 C-9.30078125 11.50390625 -9.30078125 11.50390625 -9.3125 8.5625 C-9.32925781 7.59441406 -9.34601563 6.62632813 -9.36328125 5.62890625 C-9 3 -9 3 -7.6796875 1.1640625 C-5.16976047 -0.5753753 -2.96576948 -0.19771797 0 0 Z " fill="#5887DE" transform="translate(140,37)"/>
<path d="M0 0 C3.63 0 7.26 0 11 0 C10.67 1.32 10.34 2.64 10 4 C6.37 4 2.74 4 -1 4 C-0.67 2.68 -0.34 1.36 0 0 Z " fill="#499DEA" transform="translate(146,84)"/>
<path d="M0 0 C4.05606165 0.46800711 7.46588679 0.87953208 11 3 C8.36 2.67 5.72 2.34 3 2 C3 2.66 3 3.32 3 4 C5.64 4.33 8.28 4.66 11 5 C10.34 5.66 9.68 6.32 9 7 C3.06 5.35 -2.88 3.7 -9 2 C-5.68756695 1.17189174 -3.34023421 0.90721572 0 1 C0 0.67 0 0.34 0 0 Z " fill="#5D7DDB" transform="translate(104,15)"/>
<path d="M0 0 C0 0.99 0 1.98 0 3 C0.33 3.33 0.66 3.66 1 4 C1.66 3.67 2.32 3.34 3 3 C1.70700306 5.88437779 0.34058637 7.87219421 -2 10 C-3.32 9.34 -4.64 8.68 -6 8 C-4.26440562 4.942048 -2.61527381 2.36620011 0 0 Z " fill="#4E8DDE" transform="translate(148,69)"/>
</svg>
