<?xml version="1.0" encoding="UTF-8"?>
<svg version="1.1" xmlns="http://www.w3.org/2000/svg" width="512" height="512">
<path d="M0 0 C0.9355925 -0.00974854 1.871185 -0.01949707 2.83512878 -0.02954102 C23.24416486 -0.1984297 42.96079539 -0.03089418 63.0078125 4.23828125 C63.93158691 4.42551758 64.85536133 4.61275391 65.80712891 4.80566406 C101.4803425 12.13655694 136.04867954 27.05718327 165.0078125 49.23828125 C165.5857959 49.67495117 166.1637793 50.11162109 166.75927734 50.56152344 C175.26586251 57.002323 183.31244993 63.84319145 191.0078125 71.23828125 C191.60239258 71.80562988 192.19697266 72.37297852 192.80957031 72.95751953 C201.15799553 80.96365501 208.80764092 89.18319073 215.69726562 98.47900391 C217.02578341 100.26240538 218.38141287 102.02237641 219.7421875 103.78125 C227.10148221 113.40694237 233.21551204 123.60687263 239.0078125 134.23828125 C239.3697168 134.89876465 239.73162109 135.55924805 240.10449219 136.23974609 C257.60985188 168.57859478 268.92626162 206.31643928 269.24609375 243.23046875 C269.25584229 244.16606125 269.26559082 245.10165375 269.27563477 246.06559753 C269.44452345 266.47463361 269.27698793 286.19126414 265.0078125 306.23828125 C264.82057617 307.16205566 264.63333984 308.08583008 264.44042969 309.03759766 C257.10953681 344.71081125 242.18891048 379.27914829 220.0078125 408.23828125 C219.57114258 408.81626465 219.13447266 409.39424805 218.68457031 409.98974609 C212.24377075 418.49633126 205.4029023 426.54291868 198.0078125 434.23828125 C197.44046387 434.83286133 196.87311523 435.42744141 196.28857422 436.04003906 C188.28243874 444.38846428 180.06290302 452.03810967 170.76708984 458.92773438 C168.98368837 460.25625216 167.22371734 461.61188162 165.46484375 462.97265625 C155.83915138 470.33195096 145.63922112 476.44598079 135.0078125 482.23828125 C134.3473291 482.60018555 133.6868457 482.96208984 133.00634766 483.33496094 C100.66749897 500.84032063 62.92965447 512.15673037 26.015625 512.4765625 C25.0800325 512.48631104 24.14444 512.49605957 23.18049622 512.50610352 C2.77146014 512.6749922 -16.94517039 512.50745668 -36.9921875 508.23828125 C-37.91596191 508.05104492 -38.83973633 507.86380859 -39.79150391 507.67089844 C-75.4647175 500.34000556 -110.03305454 485.41937923 -138.9921875 463.23828125 C-139.5701709 462.80161133 -140.1481543 462.36494141 -140.74365234 461.91503906 C-149.25023751 455.4742395 -157.29682493 448.63337105 -164.9921875 441.23828125 C-165.58676758 440.67093262 -166.18134766 440.10358398 -166.79394531 439.51904297 C-175.14237053 431.51290749 -182.79201592 423.29337177 -189.68164062 413.99755859 C-191.01015841 412.21415712 -192.36578787 410.45418609 -193.7265625 408.6953125 C-201.08585721 399.06962013 -207.19988704 388.86968987 -212.9921875 378.23828125 C-213.3540918 377.57779785 -213.71599609 376.91731445 -214.08886719 376.23681641 C-231.59422688 343.89796772 -242.91063662 306.16012322 -243.23046875 269.24609375 C-243.24021729 268.31050125 -243.24996582 267.37490875 -243.26000977 266.41096497 C-243.42889845 246.00192889 -243.26136293 226.28529836 -238.9921875 206.23828125 C-238.80495117 205.31450684 -238.61771484 204.39073242 -238.42480469 203.43896484 C-231.09391181 167.76575125 -216.17328548 133.19741421 -193.9921875 104.23828125 C-193.55551758 103.66029785 -193.11884766 103.08231445 -192.66894531 102.48681641 C-186.22814575 93.98023124 -179.3872773 85.93364382 -171.9921875 78.23828125 C-171.42483887 77.64370117 -170.85749023 77.04912109 -170.27294922 76.43652344 C-162.26681374 68.08809822 -154.04727802 60.43845283 -144.75146484 53.54882812 C-142.96806337 52.22031034 -141.20809234 50.86468088 -139.44921875 49.50390625 C-129.82352638 42.14461154 -119.62359612 36.03058171 -108.9921875 30.23828125 C-108.3317041 29.87637695 -107.6712207 29.51447266 -106.99072266 29.14160156 C-74.65187397 11.63624187 -36.91402947 0.31983213 0 0 Z " fill="#FEFEFE" transform="translate(242.9921875,-0.23828125)"/>
<path d="M0 0 C4.99259616 2.40714458 8.59218164 5.71964654 10.8046875 10.875 C13.27187422 18.20025542 14.17735161 25.89841891 15.3125 33.515625 C15.8022352 36.78501107 16.36811669 40.01677769 17.0625 43.25 C18.19246025 48.59163027 18.80719822 53.99373612 19.5 59.40625 C19.90388657 62.30918469 20.38905158 65.13617929 21 68 C21.86252986 72.04519818 22.42289945 76.0834543 22.9375 80.1875 C23.59619131 85.34811298 24.43875651 90.40709782 25.5 95.5 C26.7916186 101.70622737 27.6811783 107.89224013 28.46875 114.1796875 C29.02384694 118.17148758 29.73147298 122.10769891 30.5 126.0625 C31.64013092 131.95118849 32.58855139 137.83930675 33.40625 143.78125 C35.21139472 156.78352432 37.10859112 169.80211663 39.625 182.6875 C40.5898288 187.63613803 41.37082012 192.56000426 42 197.5625 C42.79779865 203.89170262 43.98325366 210.07695011 45.28125 216.3203125 C46.19592764 221.00306431 46.83290643 225.70294087 47.47265625 230.4296875 C48.02452158 234.16602021 48.71483459 237.85556343 49.4375 241.5625 C50.62733371 247.68644641 51.58324602 253.82064629 52.4375 260 C55.40928186 281.41597694 59.30695 302.69885235 63 324 C65.55366349 317.62720774 67.3195678 311.2290389 68.9375 304.5625 C69.19982422 303.49845947 69.46214844 302.43441895 69.73242188 301.33813477 C71.35820942 294.71864293 72.92463958 288.08656748 74.46069336 281.44580078 C76.33363344 273.43425881 78.46124011 265.48837138 80.55078125 257.53125 C83.37680468 246.76544648 86.08546057 236.00024822 88.2890625 225.0859375 C89 222 89 222 89.9609375 219.2265625 C90.79928175 216.62328298 91.37692654 214.22860467 91.87890625 211.5546875 C93.20233969 204.65217516 95.09493835 197.9032657 96.9375 191.125 C99.57929652 181.36146723 102.16315248 171.59053876 104.54223633 161.75927734 C104.99799521 159.87889924 105.467287 158.00181585 105.9375 156.125 C106.23527344 154.91070312 106.53304688 153.69640625 106.83984375 152.4453125 C108.32411734 148.03746973 110.15891726 144.41972154 113.89453125 141.5390625 C119.84982151 138.70089973 124.16912599 138.12145289 130.625 140.125 C138.66968983 144.59427213 142.15433192 153.3691079 146.375 161.1875 C147.07371294 162.46980997 147.77318768 163.7517051 148.47338867 165.03320312 C149.92220952 167.68544758 151.36837261 170.33911539 152.81298828 172.99365234 C155.9548296 178.75845221 159.14136026 184.49839365 162.33209229 190.23623657 C163.2941156 191.96692628 164.2542541 193.69866327 165.21435547 195.43041992 C166.09244873 197.01173706 166.09244873 197.01173706 166.98828125 198.625 C167.75458862 200.00558594 167.75458862 200.00558594 168.53637695 201.4140625 C169.54839093 203.20209454 170.60214102 204.96690874 171.68823242 206.7109375 C173 209 173 209 173 211 C173.56653353 210.99631283 174.13306705 210.99262566 174.71676826 210.98882675 C188.51343301 210.90041893 202.31004801 210.83451838 216.1069355 210.79275131 C222.77909324 210.771874 229.45100685 210.74355316 236.12304688 210.69824219 C242.56156296 210.6547906 248.99988239 210.63086395 255.43853378 210.62049103 C257.89534476 210.61309852 260.35214493 210.59866282 262.80887222 210.57707977 C266.2492832 210.54805603 269.68888089 210.54404372 273.12939453 210.54589844 C274.65393501 210.52432678 274.65393501 210.52432678 276.20927429 210.50231934 C282.02054216 210.53623307 285.40033306 211.09262142 290 215 C290.94875 215.804375 291.8975 216.60875 292.875 217.4375 C295.96878445 221.41088983 295.80250027 225.93944563 295.625 230.79296875 C294.63711707 235.86204302 292.02137707 238.88588483 288 242 C284.85199391 243.88244188 282.5154933 244.25530039 278.86529541 244.27415466 C277.82800293 244.28412979 276.79071045 244.29410492 275.72198486 244.30438232 C274.58944275 244.305047 273.45690063 244.30571167 272.29003906 244.30639648 C271.09286255 244.31472 269.89568604 244.32304352 268.66223145 244.33161926 C265.38101256 244.35158861 262.09994084 244.36236071 258.81866932 244.36744571 C256.76624515 244.37109265 254.71384526 244.37733455 252.66143036 244.3844471 C245.4940026 244.40893753 238.32664714 244.42199195 231.15917969 244.42553711 C224.49029761 244.4291689 217.82187675 244.45903916 211.15313554 244.50094169 C205.41877879 244.53570287 199.6845744 244.55108657 193.95011306 244.55178314 C190.52917365 244.5525742 187.10870389 244.56123179 183.68787384 244.58978081 C179.86735561 244.61667175 176.048104 244.61187444 172.22753906 244.59936523 C170.54087128 244.62161667 170.54087128 244.62161667 168.82012939 244.64431763 C160.63215342 244.56807634 155.60859383 242.63464866 149.8359375 236.8203125 C147.12667847 232.65842948 144.8799829 228.29588678 142.625 223.875 C141.65315773 221.99046543 140.68050841 220.10634682 139.70703125 218.22265625 C139.0102124 216.87131592 139.0102124 216.87131592 138.29931641 215.49267578 C136.25493697 211.57063255 134.10490267 207.71203936 131.92578125 203.86328125 C131 202 131 202 131 200 C130.34 200 129.68 200 129 200 C128.83951172 201.6396875 128.83951172 201.6396875 128.67578125 203.3125 C128.00348416 208.67203827 126.59799675 213.79481198 125.1875 219 C124.63996786 221.05711687 124.09309477 223.11440927 123.546875 225.171875 C123.28068359 226.17025391 123.01449219 227.16863281 122.74023438 228.19726562 C121.76940624 231.87309248 120.84903988 235.55901066 119.9375 239.25 C118.50837685 245.01393238 117.01996229 250.75938715 115.5 256.5 C113.61730227 263.61376477 111.79226462 270.73880968 110.02197266 277.88134766 C109.07087502 281.71783978 108.11235003 285.55244515 107.15234375 289.38671875 C105.89364153 294.41641909 104.63983479 299.44729263 103.39282227 304.47990417 C96.02996826 334.19140298 96.02996826 334.19140298 91.95751953 348.88354492 C90.22296461 355.14315803 88.61894724 361.42286498 87.06640625 367.73046875 C85.49146362 374.09028107 83.81326737 380.42391863 82.14501953 386.75976562 C80.81937374 391.80549965 79.55382524 396.85502396 78.375 401.9375 C76.78026711 408.27034102 75.14684692 413.2912851 69.9375 417.4375 C63.93666689 420.62943251 58.70764971 420.82606262 52.3125 418.875 C46.72455493 415.71201222 44.20539395 412.39454298 42.375 406.375 C40.96468805 400.51437035 40.1170137 394.57749206 39.26733398 388.61523438 C38.13231769 380.67667267 36.80427716 372.77671168 35.4375 364.875 C35.12256592 363.04412842 35.12256592 363.04412842 34.80126953 361.17626953 C33.90421497 356.00739151 32.98636257 350.84974661 31.9296875 345.7109375 C30.98627116 341.078081 30.31287536 336.43490371 29.6875 331.75 C28.28516161 321.60274246 26.61886599 311.50672304 24.91357422 301.40649414 C23.32624716 291.99915908 21.8007759 282.58374108 20.34399414 273.15527344 C19.68808505 268.97826192 18.99565112 264.85125267 18.01171875 260.73828125 C16.81331043 255.56014422 16.22292762 250.31881743 15.54931641 245.05126953 C14.73685791 238.88057359 13.64483539 232.75683806 12.5710144 226.62728882 C11.90061745 222.79945933 11.24023561 218.96989484 10.578125 215.140625 C10.4442186 214.36776657 10.31031219 213.59490814 10.17234802 212.79862976 C8.26376227 201.77073684 6.44338564 190.7281496 4.61328125 179.68701172 C3.98617613 175.91689171 3.35322642 172.14779233 2.71875 168.37890625 C0.71376931 156.45109937 -1.24987138 144.52118731 -3.0625 132.5625 C-4.35811854 124.0274324 -5.72244665 115.50773116 -7.1875 107 C-7.35451416 106.01974854 -7.52152832 105.03949707 -7.69360352 104.02954102 C-7.85014404 103.13291748 -8.00668457 102.23629395 -8.16796875 101.3125 C-8.30485107 100.52488281 -8.4417334 99.73726563 -8.58276367 98.92578125 C-8.93204332 96.92951163 -8.93204332 96.92951163 -10 95 C-10.15674194 95.8674585 -10.15674194 95.8674585 -10.31665039 96.75244141 C-11.64125605 103.74751893 -13.46876662 110.53668193 -15.4375 117.375 C-17.5149035 124.63027588 -19.50854833 131.88972577 -21.31420898 139.21777344 C-22.27938171 143.13344035 -23.28880464 147.03677786 -24.3125 150.9375 C-24.52052246 151.730354 -24.72854492 152.52320801 -24.94287109 153.34008789 C-26.8123093 160.40386414 -28.80849241 167.42921925 -30.85668945 174.44311523 C-33.08443 182.12016981 -35.00564889 189.86279905 -36.87353516 197.63452148 C-37.6522904 200.85517477 -38.44783155 204.07076829 -39.25976562 207.28320312 C-39.58785697 208.59948993 -39.9074661 209.91791871 -40.21875 211.23828125 C-42.15616157 219.42384514 -44.05846728 226.70413614 -51 232 C-54.79610929 233.81668109 -57.82290952 234.25400693 -62.01423645 234.26742554 C-63.82466179 234.28022049 -63.82466179 234.28022049 -65.67166138 234.29327393 C-66.98762299 234.29236755 -68.30358459 234.29146118 -69.65942383 234.29052734 C-71.06588599 234.29651484 -72.47234486 234.3033209 -73.87879944 234.31088257 C-77.69298608 234.32852846 -81.50708295 234.33323738 -85.32130647 234.33451414 C-87.70657611 234.33593723 -90.09182303 234.34020984 -92.47708702 234.34550858 C-100.80513326 234.36400498 -109.13311554 234.37217978 -117.46118164 234.37060547 C-125.21324726 234.36940454 -132.96503426 234.39049827 -140.71702939 234.4220928 C-147.38133225 234.44828229 -154.04554427 234.45897163 -160.70989817 234.45769465 C-164.68628946 234.45718575 -168.66243312 234.46282863 -172.63877296 234.48405075 C-176.38093625 234.50347817 -180.12261685 234.50352733 -183.86479759 234.48901749 C-185.8838066 234.48594424 -187.90281589 234.50257472 -189.92175293 234.51989746 C-197.07869799 234.47049893 -201.96884005 233.98048856 -208 230 C-212.12275087 224.82013352 -213.73564744 220.62082692 -213 214 C-210.56588402 208.27113417 -208.22432368 204.02705415 -202.25842094 201.61221886 C-197.43136932 200.30368865 -192.42008056 200.61372291 -187.45532227 200.65942383 C-186.20584305 200.65898575 -184.95636383 200.65854767 -183.66902161 200.65809631 C-180.26023742 200.65982239 -176.85200518 200.67481816 -173.44331861 200.69581819 C-169.87457753 200.71463256 -166.3058283 200.71633916 -162.73704529 200.71989441 C-155.98692471 200.72920095 -149.23695072 200.75379574 -142.48689455 200.78394288 C-134.7988702 200.81753035 -127.11083868 200.83398379 -119.42275918 200.84902918 C-103.61508803 200.88034667 -87.80756295 200.93307989 -72 201 C-71.93584805 200.38496424 -71.87169611 199.76992847 -71.80560017 199.13625526 C-71.71903754 198.32789412 -71.63247492 197.51953297 -71.54328918 196.68667603 C-71.45851224 195.88601526 -71.37373529 195.0853545 -71.28638935 194.26043129 C-70.94209904 191.54299579 -70.30872298 189.01761987 -69.51171875 186.3984375 C-69.21958496 185.42156982 -68.92745117 184.44470215 -68.62646484 183.43823242 C-68.31660645 182.42736572 -68.00674805 181.41649902 -67.6875 180.375 C-67.04693448 178.2334442 -66.40760732 176.0915176 -65.76953125 173.94921875 C-65.46225098 172.92231934 -65.1549707 171.89541992 -64.83837891 170.83740234 C-63.09200585 164.92699244 -61.54812502 158.96502048 -60 153 C-59.18973178 149.89524692 -58.37667517 146.79123066 -57.5625 143.6875 C-57.35367188 142.89037598 -57.14484375 142.09325195 -56.9296875 141.27197266 C-55.4607415 135.68795017 -53.93307209 130.12225194 -52.375 124.5625 C-50.78103551 118.87400895 -49.27788491 113.17657463 -47.875 107.4375 C-46.66679562 102.69098277 -45.36114387 97.97245018 -44.0625 93.25 C-41.93760377 85.51394813 -39.91183796 77.76621852 -37.9921875 69.9765625 C-35.88788031 61.47823469 -33.5965319 53.02624371 -31.35449219 44.56347656 C-30.71461844 42.14671518 -30.07595633 39.72963618 -29.4375 37.3125 C-29.23020264 36.53068359 -29.02290527 35.74886719 -28.80932617 34.94335938 C-27.80164182 31.12443075 -26.82217501 27.30204612 -25.90234375 23.4609375 C-25.72840088 22.73994873 -25.55445801 22.01895996 -25.37524414 21.27612305 C-24.90791014 19.32490668 -24.44970105 17.37151111 -23.9921875 15.41796875 C-22.16069488 9.10869299 -19.8134988 4.90851117 -14.44921875 1.140625 C-9.7501784 -1.04776381 -5.03392555 -0.82953421 0 0 Z " fill="#7D15DA" transform="translate(215,49)"/>
<path d="M0 0 C0.33 0 0.66 0 1 0 C2.51233701 6.46794133 3.21432579 12.35590042 3 19 C-0.02153065 15.97846935 0.03333349 13.06267172 -0.09765625 8.88671875 C-0.08605469 7.83097656 -0.07445312 6.77523437 -0.0625 5.6875 C-0.05347656 4.61886719 -0.04445312 3.55023438 -0.03515625 2.44921875 C-0.02355469 1.64097656 -0.01195312 0.83273438 0 0 Z " fill="#8C37D0" transform="translate(230,87)"/>
<path d="M0 0 C1.4606285 2.64738916 2 3.89448334 2 7 C0.72239767 10.24314437 0.03061766 10.97958823 -3 13 C-2.45144652 8.428721 -1.58255197 4.32564205 0 0 Z " fill="#8727D4" transform="translate(320,210)"/>
<path d="M0 0 C0.33 0 0.66 0 1 0 C1.22162329 1.62324086 1.42689803 3.248721 1.625 4.875 C1.74101562 5.77992188 1.85703125 6.68484375 1.9765625 7.6171875 C1.98429688 8.40351563 1.99203125 9.18984375 2 10 C1.34 10.66 0.68 11.32 0 12 C-0.19477739 10.37585622 -0.38059458 8.75063577 -0.5625 7.125 C-0.66691406 6.22007812 -0.77132812 5.31515625 -0.87890625 4.3828125 C-1 2 -1 2 0 0 Z " fill="#862CCE" transform="translate(244,172)"/>
<path d="M0 0 C2.01136276 2.55991624 3.62845496 5.04590299 5 8 C4.01 8 3.02 8 2 8 C0 6 0 6 -0.125 2.875 C-0.08375 1.92625 -0.0425 0.9775 0 0 Z " fill="#801DD2" transform="translate(383,251)"/>
<path d="M0 0 C0.33 0 0.66 0 1 0 C1.86516528 4.49885947 2.30903272 7.01647791 0 11 C-0.19491452 9.54263913 -0.38069358 8.08405407 -0.5625 6.625 C-0.66691406 5.81289062 -0.77132812 5.00078125 -0.87890625 4.1640625 C-1 2 -1 2 0 0 Z " fill="#903AD5" transform="translate(219,214)"/>
</svg>
